<?xml version="1.0" encoding="utf-8"?>
<!-- Generator: Adobe Illustrator 19.0.0, SVG Export Plug-In . SVG Version: 6.00 Build 0)  -->
<svg version="1.1" xmlns="http://www.w3.org/2000/svg" xmlns:xlink="http://www.w3.org/1999/xlink" x="0px" y="0px"
	 viewBox="0 0 400 400" style="enable-background:new 0 0 400 400;" xml:space="preserve">
<style type="text/css">
	.st0{fill:#FFFFFF;stroke:#B6571E;stroke-width:4;stroke-miterlimit:10;}
	.st1{fill:#B6571E;}
</style>
<g id="Layer_1">
</g>
<g id="Layer_2">
	<g id="XMLID_1_">
		<ellipse id="XMLID_16_" class="st0" cx="200" cy="200" rx="196.5" ry="130.2"/>
		<g id="XMLID_134_">
			<path id="XMLID_135_" class="st1" d="M128.7,270.4c2.7-0.7,5.4-0.6,8.2,0.4c2,0.7,3.5,1.7,4.4,3s1.2,2.7,0.7,4.1
				c-0.6,1.9-2.2,2.8-4.6,2.7l-0.1,0.2c0.2,0.1,0.4,0.3,0.7,0.5c1.1,0.1,2.1-0.1,2.9-0.6c0.8-0.5,1.4-1.3,1.8-2.4
				c0.4-1.3,0.3-2.7-0.4-4.1l0-0.1l0.1,0.2c0.9,1.3,1.1,2.8,0.6,4.2c-0.7,2-2.2,3.1-4.6,3.2c0.8,0.7,1.3,1.6,1.5,2.5
				c0.2,0.9,0.2,1.9-0.1,2.9c-0.5,1.4-1.3,2.3-2.6,2.8c-1.3,0.5-2.8,0.4-4.4-0.1l-9.9-3.4l2.5-1l2.1-6c-0.5-0.2-1.2-0.3-2-0.5l0-0.4
				c0.9,0.2,1.5,0.4,2.1,0.6l0.3-0.7l-0.3-0.1c-0.5-0.2-1.2-0.4-2-0.6l1.1-1.1l0.2,0.1c0.4,0.2,0.6,0.3,0.8,0.3
				c0.3,0.1,0.5,0.2,0.6,0.3l1.8-5.2L128.7,270.4z M140.7,283.6c0.7,1.1,0.8,2.4,0.3,4c-0.5,1.6-1.5,2.7-3,3.3
				c-1.4,0.6-3.2,0.6-5.2-0.1l-9.4-3.2l-0.1-0.5l8.8,3c1.9,0.7,3.3,0.9,4.3,0.8c2.2-0.2,3.6-1.4,4.4-3.6c0.4-1.2,0.4-2.4-0.2-3.7
				L140.7,283.6z M130.6,279.1l-2.6,7.7l0.7,0.2l2.3-6.8c0.7,0.2,1.2,0.3,1.4,0.4c1.5,0.5,2.6,1,3.2,1.6c0.6,0.5,1,1.3,1.1,2.2
				l-0.2-0.1c-0.2-0.8-0.7-1.4-1.3-1.9c-0.6-0.5-1.6-0.9-2.9-1.4l-1.1-0.4l-2.2,6.5l0.4,0.2l2,0.6c2.7,0.7,4.4-0.1,5.2-2.5
				c0.5-1.5,0.4-2.6-0.3-3.5c-0.7-0.8-2.2-1.7-4.6-2.5C131.7,279.4,131.3,279.3,130.6,279.1z M133.2,271.7l-2.1,6.3
				c0.1,0,0.2,0,0.2,0.1l0.2,0.1c0,0,0.1,0,0.2,0.1l1.9-5.7c0.9-0.1,1.8,0,2.5,0.2c0.9,0.3,1.5,0.7,1.9,1.2c0.4,0.5,0.6,1.2,0.7,2
				l-0.3-0.4c-0.3-1.3-1.1-2.1-2.4-2.6c-0.7-0.2-1.4-0.3-2.2-0.1l-1.8,5.3l0.6,0.2c1.8,0.6,3.2,0.8,4.3,0.5c1.1-0.3,1.8-1,2.2-2.3
				c0.4-1.1,0.3-2-0.2-2.9c-0.5-0.9-1.3-1.5-2.5-1.9C135.4,271.5,134.3,271.4,133.2,271.7z"/>
			<path id="XMLID_140_" class="st1" d="M154.8,276c2.3,0.5,4,1.8,4.9,3.9c1,2.1,1.1,4.6,0.5,7.5c-0.6,2.8-1.8,4.8-3.6,6.2
				c-1.7,1.3-3.8,1.7-6.1,1.2c-1.8-0.4-3.3-1.4-4.5-2.9c-1.7-2.2-2.1-5-1.4-8.3c0.7-2.9,1.9-5,3.7-6.4
				C150.3,275.9,152.4,275.5,154.8,276z M159.2,277.8c1.2,1,2,2.3,2.5,4.1s0.4,3.7-0.1,5.8c-0.7,3.1-2.1,5.4-4.1,6.9s-4.3,2-6.8,1.4
				c-1.6-0.4-3-1.3-4.2-2.7l0-0.1c1,1.1,2.4,1.9,4.1,2.3c2.4,0.6,4.6,0.1,6.5-1.3c1.9-1.4,3.2-3.6,3.9-6.4c0.5-2.1,0.6-4,0.2-5.7
				s-1.1-3.1-2.2-4.2L159.2,277.8z M154.5,277.3c-3.2-0.7-5.5,1.7-6.8,7.4c-1.2,5.2-0.2,8.2,2.9,8.9c1.5,0.3,2.8-0.1,3.9-1.3
				c1.1-1.2,1.9-3.1,2.6-5.8c0.7-3,0.8-5.2,0.3-6.6C156.9,278.5,156,277.6,154.5,277.3z M157.1,280.1l-0.2-0.2
				c-0.8-0.7-1.6-1.2-2.3-1.3c-2.5-0.6-4.3,1.6-5.5,6.5c-0.8,3.6-0.6,6.2,0.7,7.7l-0.2,0.1c-0.8-0.9-1.3-1.9-1.4-3.1
				c-0.2-1.2,0-2.7,0.4-4.6c1.2-5.3,3.2-7.6,6-7C155.9,278.5,156.7,279.1,157.1,280.1z"/>
			<path id="XMLID_145_" class="st1" d="M179.6,280.9l-0.2,0.3c-1.1,1.4-2,2.8-2.9,4.3l-0.2,0.3l-0.2-0.1c0-1.5-0.4-2.7-1.1-3.7
				c-0.7-1-1.6-1.5-2.8-1.7c-1.2-0.2-2.3,0.2-3.3,1.2c-1.2,1.2-2.1,3.4-2.5,6.6c-0.4,2.8-0.2,5,0.5,6.7c0.7,1.7,2,2.7,3.7,2.9
				c1.4,0.2,2.5-0.1,3.4-0.9s1.6-2,2-3.7c0.1-0.4,0.3-0.6,0.6-0.5c0.4,0.1,0.5,0.4,0.4,1c-0.1,0.9-0.5,1.9-1,2.8
				c-1.2,2-3.2,2.8-6,2.4c-2.5-0.3-4.4-1.5-5.6-3.5c-1.2-2-1.7-4.5-1.2-7.5c0.4-2.8,1.5-5,3.3-6.7c1.8-1.7,3.8-2.3,6.1-2
				c1.1,0.1,2.3,0.6,3.6,1.3c0.7,0.4,1.3,0.6,1.7,0.7c0.5,0.1,1,0,1.4-0.2L179.6,280.9z M178.4,293.5c-0.5,2.4-1.4,4.1-2.8,5.2
				c-1.4,1.1-3.1,1.5-5.2,1.2c-1.6-0.2-3.1-0.9-4.3-2.1l0-0.1c1.1,1,2.6,1.6,4.3,1.8c1.9,0.3,3.6-0.1,4.9-1.2
				c0.7-0.5,1.2-1.1,1.6-1.8c0.4-0.7,0.7-1.7,1-2.9l0.1-0.3L178.4,293.5z M175,282.9c-0.8-0.8-1.6-1.3-2.4-1.4
				c-2.5-0.3-4.1,1.9-4.8,6.7c-0.3,2.2-0.3,4,0.1,5.6s1.1,2.6,2.1,3.1l0,0.1c-1.1-0.4-1.9-1.4-2.4-3c-0.5-1.6-0.5-3.6-0.2-5.9
				c0.7-5,2.4-7.3,5.2-6.9c0.9,0.1,1.7,0.7,2.4,1.6L175,282.9z M180.5,281.8l-0.2,0.3c-1.3,1.7-2.4,3.2-3.2,4.6l-0.4-0.2l0.2-0.3
				c0.6-1,1.2-1.7,1.6-2.4l1.4-1.9l0.2-0.2L180.5,281.8z"/>
			<path id="XMLID_150_" class="st1" d="M181.4,280.7l6.9,0.3l-2.1,1.8l-0.3,6.3c0.2,0.1,0.5,0.1,0.8,0.1l0.3-6.3l1.7-1.5l0.3,0.3
				l-1.6,1.4l-0.3,6.1l0.5,0.1c0.7,0.1,1.5,0.2,2.2,0.2c1,0.1,1.9,0,2.6,0l0.3-6.7l-1.7-1.7l6.8,0.3l-2.1,1.8l-0.8,15.3l1.7,1.7
				l-6.7-0.3l2.1-1.6l0.3-6.2c-0.8,0.2-1.7,0.2-2.5,0.2c-0.8,0-1.7-0.1-2.5-0.3l-0.2,0l-0.3,6.2l2.3,2.9l-7.6-0.4l-0.4-0.4l7.2,0.4
				l-1.9-2.3l0.3-6.7l0.4,0.1c1.3,0.2,2.2,0.3,2.8,0.3c0.9,0,1.8,0,2.5-0.3l0-0.5c-0.9,0.1-2,0.1-3.2,0c-0.7,0-1.1-0.1-1.4-0.1
				l-1.5-0.2c-0.1,0-0.2,0-0.3,0l-0.4,7.3l1.8,1.7l-6.8-0.3l2-1.6l0.3-6.4c-0.8,0-1.5,0.2-2,0.9l-0.3-0.2c0.6-0.7,1.4-1,2.3-1.1
				l0-0.5c-1.1-0.1-2,0.3-2.7,1.1l-0.2-0.2c0.6-1.4,1.6-2.2,2.9-2.3l0.3-6.6L181.4,280.7z M198.3,282.4l-1.6,1.4l-0.8,14.9l2.3,2.9
				l-7.6-0.4l-0.3-0.4l7.1,0.4l-1.9-2.3l0.8-15.3l1.7-1.5L198.3,282.4z"/>
			<path id="XMLID_153_" class="st1" d="M215.2,281l-0.2,0.3c-1,1.3-1.7,2.7-2.2,4.3c-0.1-0.2-0.2-0.4-0.2-0.5
				c-0.6-1.2-1.2-1.9-1.8-2.2c-0.6-0.3-1.7-0.5-3.3-0.4c-0.7,0-1.6,0.1-2.6,0.2l0.2,6.7l0.9,0l-0.2-6c0.7-0.1,1.4-0.2,2.1-0.2
				c1.2,0,2.2,0.1,2.8,0.3c0.6,0.2,1.1,0.7,1.6,1.5c-0.1-0.1-0.2-0.2-0.3-0.2c-0.8-0.6-1.4-0.9-1.8-1.1c-0.4-0.1-1.1-0.1-2.1-0.1
				c-0.3,0-0.9,0.1-1.7,0.1l-0.3,0l0.2,5.6l2.7-0.1l1.8-2.7l0.2,6.3l-2-2.4l-4,0.1l0.3,8.2l0.9,0l-0.3-7.5l3.2-0.1l0.4,0.4l-3.2,0.1
				l0.3,7.2c2-0.1,3.4-0.3,4.2-0.6c0.8-0.3,1.5-0.9,1.9-1.7l0.7-1.4c0-0.1,0.1-0.2,0.2-0.3c0.3,1.1,0.6,1.9,1,2.5
				c0.4,0.6,1.1,1.4,2,2.2l-16.4,0.6l2.2-1.8l-0.2-6.5c-0.8,0.1-1.6,0.4-2.2,0.8l-0.2-0.3c0.6-0.5,1.4-0.8,2.4-0.9l0-0.7
				c-0.2,0-0.3,0-0.4,0c-1,0-1.9,0.4-2.7,1.2c0.4-1.6,1.4-2.4,3-2.5l-0.2-6.3l-2.3-1.7L215.2,281z M218.3,299.6l-0.7,1.3l-16,0.6
				l-0.2-0.4l16.1-0.6l0.5-0.9c-1.5-1.2-2.5-2.6-3.1-4.1l0.5,0.2c0.6,1.2,1.5,2.5,2.9,3.7L218.3,299.6z M211.8,287l0.2,6.5l-0.4-0.2
				l-0.2-6.5L211.8,287z M215.9,282l-0.1,0.1c-1.1,1.6-1.9,3-2.2,4.1l-0.3-0.3c0.6-1.5,1.4-3,2.4-4.3L215.9,282z"/>
			<path id="XMLID_159_" class="st1" d="M233.9,278.8c-1,0.7-1.7,1.3-1.9,1.8c-0.4,0.8-0.5,1.9-0.3,3.4l0.1,0.9l1.6,12.8l-2.5,0.3
				l-8.5-12.5l1,7.9l0.1,0.7l0.4,2.1c0.3,0.9,0.8,1.6,1.6,2l0.1,0.1c-1.4-0.3-2.2-1.6-2.5-4l-0.2-1.4l-1-8l-1-1.4l1,8.4
				c0.3,2.7,0.7,4.4,1.2,5.2c0.5,0.8,1.3,1.3,2.7,1.5l1.4,1.2l-7.9,1l-0.3-0.4l7.3-0.9l-0.9-0.7l-6.8,0.8c1.1-0.6,1.8-1.2,2.1-2
				c0.3-0.8,0.3-2,0.1-3.8l-1.4-11.6l-2.1-1.4l7.4-0.9l-1.9,1.6l8.7,12.9l-0.2-1.7l-7.5-11l1.9-1.6l0.3,0.2l-1.7,1.4l6.9,10.2
				l-0.8-6.8l-0.1-0.8c-0.2-1.7-0.5-2.8-0.8-3.3s-1.1-1-2.2-1.4L233.9,278.8z M234.6,279.9l-0.2,0.5c-0.7,0.3-1.2,0.7-1.4,1.2
				c-0.2,0.5-0.2,1.3-0.1,2.4l1.8,15l-3.1,0.4l-0.2-0.4l2.9-0.4l-1.8-14.5c-0.2-1.4-0.1-2.3,0.2-2.9S233.6,280.2,234.6,279.9z"/>
			<path id="XMLID_165_" class="st1" d="M250.1,275.4l-0.2,0.3c-0.7,1.4-1.2,2.9-1.4,4.6c-0.1-0.2-0.3-0.3-0.3-0.4
				c-0.8-1-1.5-1.7-2.2-1.9s-1.8-0.1-3.3,0.2c-0.7,0.2-1.6,0.4-2.6,0.6l1.4,6.6l0.9-0.2l-1.3-5.8c0.7-0.2,1.4-0.4,2.1-0.5
				c1.2-0.3,2.1-0.3,2.8-0.2c0.6,0.1,1.2,0.5,1.9,1.2c-0.2-0.1-0.3-0.1-0.3-0.2c-0.9-0.4-1.5-0.7-1.9-0.7c-0.4,0-1.1,0-2.1,0.3
				c-0.3,0.1-0.8,0.2-1.6,0.4l-0.3,0.1l1.2,5.4l2.6-0.6l1.3-2.9l1.3,6.2l-2.4-2l-3.9,0.8l1.7,8l0.9-0.2l-1.6-7.4l3.1-0.7l0.5,0.3
				l-3.1,0.7l1.5,7c2-0.4,3.3-0.9,4.1-1.3c0.8-0.5,1.3-1.1,1.6-2.1l0.5-1.5c0-0.1,0.1-0.2,0.1-0.4c0.5,1,1,1.8,1.5,2.3
				c0.5,0.6,1.3,1.2,2.3,1.8l-16.1,3.5l1.8-2.1l-1.4-6.4c-0.8,0.3-1.5,0.7-2,1.2l-0.3-0.3c0.5-0.5,1.2-1,2.2-1.3l-0.1-0.7
				c-0.2,0-0.3,0-0.4,0c-1,0.2-1.8,0.8-2.4,1.7c0.1-1.6,0.9-2.6,2.5-2.9l-1.3-6.1l-2.6-1.3L250.1,275.4z M256.5,293.2l-0.5,1.5
				l-15.7,3.4l-0.3-0.3l15.7-3.4l0.3-1c-1.7-1-2.9-2.1-3.8-3.4l0.5,0.1c0.8,1.1,1.9,2.1,3.5,3.1L256.5,293.2z M247.8,282l1.4,6.3
				l-0.4-0.1l-1.4-6.3L247.8,282z M251,276.3l-0.1,0.2c-0.8,1.8-1.3,3.3-1.5,4.4l-0.3-0.2c0.3-1.6,0.9-3.2,1.6-4.6L251,276.3z"/>
			<path id="XMLID_170_" class="st1" d="M252.2,275l6.5-2.1l-1.3,2.5l2.8,8.4l0.5-1.1l-2.4-7.4l1.1-2l0.3,0.2l-1,1.9l2.2,6.8
				l2.6-6.6c0.4-0.9,0.5-1.7,0.3-2.3c-0.1-0.4-0.4-0.6-0.9-0.8s-1-0.3-1.5-0.2l0-0.1l7.3-2.4l0,0.1c-1.5,0.9-2.8,2.8-3.9,5.6
				l-1.2,2.9l8.4,8.3l2.8,0.8l-7.2,2.4l1.4-2l-5.7-5.8l-1.4,3.5l1.3,4l3.1,1.9l-7.2,2.3l-0.5-0.3l6.7-2.2l-2.5-1.6l-1.4-4.3l1.5-3.8
				l-0.5-0.5l-1.8,4.4l1.4,4.3l2.2,1l-6.4,2.1l1.4-2.3l-4.8-14.6L252.2,275z M269.8,270.6c-1.3,0.5-2.5,1.8-3.3,3.8l-1.6,3.5
				l8.2,8.4l4.8,1.4l-8.9,2.9l-0.5-0.2l8.1-2.6l-3.6-1.1l-8.5-8.6l1.6-3.8c0.9-2,2-3.2,3.4-3.9L269.8,270.6z"/>
		</g>
		<g id="XMLID_17_">
			<path id="XMLID_18_" class="st1" d="M109.4,121.6l1.2,2.3l-6.6,3.3c-0.3-1-0.4-1.9-0.3-2.8c0.1-0.9,0.4-1.8,0.9-2.8
				c0.5-0.9,0.8-1.6,0.8-2c0.2-0.9,0.1-1.8-0.4-2.6c-0.3-0.7-0.8-1.1-1.3-1.3c-0.5-0.2-1.1-0.2-1.7,0.1c-0.5,0.3-0.8,0.6-1,1.1
				c-0.2,0.5-0.1,1,0.1,1.5c0.2,0.4,0.5,0.7,0.8,0.8s0.7,0.2,1,0c0.3-0.2,0.5-0.5,0.6-0.9l0.1,0c0.2,0.5,0.2,0.9,0,1.3
				s-0.4,0.7-0.8,0.9c-0.5,0.3-1.1,0.3-1.6,0.1c-0.5-0.2-1-0.6-1.3-1.2c-0.4-0.8-0.5-1.6-0.2-2.4c0.3-0.8,0.9-1.4,1.7-1.8
				c0.9-0.5,1.8-0.6,2.8-0.3c0.9,0.3,1.6,0.8,2.1,1.7c0.6,1.2,0.4,2.7-0.6,4.5l-0.7,1.2c-0.5,0.9-0.8,1.9-0.8,3.1c0,0,0,0,0,0.1
				l0.5-0.2c0-1,0.3-2,0.9-3.1l0.7-1.1c0.5-0.9,0.8-1.7,0.9-2.4c0.1-0.7-0.1-1.4-0.4-2.1c-0.5-1-1.4-1.7-2.5-2l0-0.1
				c1.2,0.1,2.1,0.7,2.7,2c0.7,1.4,0.5,3-0.5,4.7l-0.7,1.1c-0.7,1.2-1,2.1-0.9,2.9l2.2-1.1c0.9-0.5,1.5-0.8,1.7-1.1s0.3-0.7,0.1-1.2
				L109.4,121.6z M105.1,117.1c-0.8-0.9-1.6-1.1-2.4-0.7c-0.3,0.2-0.6,0.4-0.7,0.8s-0.1,0.7,0.1,1.1c0.2,0.5,0.6,0.7,1.2,0.7
				l0.1,0.1c-0.3,0.1-0.5,0-0.8-0.1c-0.3-0.1-0.5-0.4-0.6-0.6c-0.2-0.4-0.2-0.8-0.1-1.2s0.4-0.7,0.8-0.9c0.5-0.2,1-0.3,1.4-0.1
				C104.4,116.2,104.8,116.6,105.1,117.1z M104.5,118.5c0.1,0.7,0.1,1.2,0,1.6c-0.2,0.4-0.5,0.7-0.9,1c-0.6,0.3-1.2,0.3-1.9-0.2
				l0.1,0l0.1,0c0.4,0.1,0.7,0.2,0.9,0.2c0.2,0,0.4-0.1,0.7-0.2c0.9-0.5,1.2-1.3,0.9-2.4L104.5,118.5z M110.1,121.6l1.3,2.6
				l-6.4,3.3l-0.2-0.2l6.3-3.2l-1.2-2.4L110.1,121.6z"/>
			<path id="XMLID_39_" class="st1" d="M110.6,110.8c0.9-0.4,1.9-0.4,2.9,0.1c1.3,0.6,2.4,1.9,3.3,3.9c0.7,1.6,1,3.1,0.8,4.3
				c-0.2,1.2-0.9,2.1-2,2.6c-1.1,0.5-2.3,0.4-3.4-0.3s-2.1-1.9-2.8-3.6c-0.7-1.6-1-3.1-0.7-4.4C108.8,112.2,109.5,111.3,110.6,110.8
				z M110.9,111.6c-0.8,0.3-1.1,1-1.2,1.9c0,0.9,0.4,2.2,1.1,3.9c1.4,3.2,2.9,4.4,4.5,3.7c1.4-0.6,1.4-2.5,0-5.7
				c-0.8-1.7-1.5-2.9-2.2-3.5S111.7,111.3,110.9,111.6z M113.1,112.4c-0.6-0.4-1.2-0.4-1.8-0.2c-0.6,0.3-0.9,0.8-0.8,1.6
				c0,0.8,0.4,1.9,1.1,3.5c0.6,1.3,1.2,2.3,1.7,2.9c0.5,0.6,1.1,0.9,1.7,0.9l0,0.1c-0.4,0.1-0.8,0-1.3-0.3c-0.7-0.4-1.5-1.6-2.4-3.6
				c-0.7-1.5-1-2.7-1-3.6c0-0.8,0.3-1.4,1-1.7c0.6-0.3,1.3-0.2,1.9,0.3L113.1,112.4z M112.7,110.3c0.9,0,1.8,0.4,2.6,1.2
				c0.8,0.7,1.5,1.8,2.1,3.1c1,2.2,1.2,4,0.8,5.4c-0.3,1.2-1,2-2.1,2.4c-0.5,0.2-1,0.3-1.4,0.3c-0.4,0-1-0.1-1.6-0.4l0-0.1
				c1,0.4,1.9,0.3,2.7,0c1.2-0.5,1.9-1.5,2.2-2.8c0.2-1.3,0-2.9-0.8-4.7c-0.6-1.3-1.2-2.3-2-3.1C114.5,111,113.6,110.5,112.7,110.3
				L112.7,110.3z"/>
			<path id="XMLID_44_" class="st1" d="M126.4,114.4l0.9,2.4l-6.9,2.6c-0.2-1-0.2-1.9,0-2.8c0.2-0.9,0.6-1.8,1.2-2.7
				c0.6-0.9,0.9-1.5,1.1-1.9c0.3-0.9,0.2-1.7-0.1-2.6c-0.3-0.7-0.7-1.2-1.2-1.5s-1.1-0.3-1.7,0c-0.5,0.2-0.9,0.5-1.1,1
				c-0.2,0.5-0.2,1,0,1.5c0.2,0.4,0.4,0.7,0.7,0.9c0.3,0.2,0.7,0.2,1,0.1c0.3-0.1,0.6-0.4,0.7-0.9l0.1,0c0.1,0.5,0.1,0.9-0.1,1.3
				c-0.2,0.4-0.5,0.6-0.9,0.8c-0.6,0.2-1.1,0.2-1.6-0.1c-0.5-0.3-0.9-0.7-1.1-1.3c-0.3-0.8-0.3-1.6,0.1-2.4s1-1.3,1.9-1.7
				c1-0.4,1.9-0.4,2.8,0s1.5,1,1.9,1.9c0.5,1.3,0.1,2.8-1.1,4.4l-0.9,1.1c-0.6,0.8-1,1.8-1.1,3c0,0,0,0,0,0.1l0.5-0.2
				c0.1-1,0.5-2,1.3-3l0.8-1c0.6-0.8,1-1.6,1.2-2.3c0.2-0.7,0.1-1.4-0.2-2.1c-0.4-1.1-1.2-1.8-2.3-2.2l0-0.1c1.2,0.2,2,0.9,2.5,2.2
				c0.6,1.5,0.2,3-1,4.7l-0.8,1c-0.8,1.1-1.2,2-1.2,2.7l2.3-0.9c0.9-0.4,1.5-0.7,1.8-0.9c0.3-0.3,0.3-0.7,0.3-1.2L126.4,114.4z
				 M121.9,110.8c0.1,0.7,0,1.2-0.2,1.6c-0.2,0.4-0.5,0.7-1,0.9c-0.6,0.2-1.3,0.1-1.8-0.4l0.1,0l0.1,0c0.4,0.2,0.7,0.3,0.9,0.3
				c0.2,0,0.4,0,0.7-0.1c1-0.4,1.4-1.2,1.1-2.3L121.9,110.8z M122.6,109.5c-0.7-1-1.5-1.3-2.4-0.9c-0.4,0.1-0.6,0.4-0.8,0.7
				c-0.2,0.3-0.2,0.7,0,1.1c0.2,0.5,0.6,0.8,1.1,0.8l0,0.1c-0.3,0-0.5,0-0.8-0.2c-0.2-0.2-0.4-0.4-0.5-0.7c-0.2-0.4-0.2-0.8,0-1.2
				s0.5-0.7,0.9-0.8c0.5-0.2,1-0.2,1.5,0C122,108.6,122.4,108.9,122.6,109.5z M127.1,114.5l1.1,2.8l-6.7,2.6l-0.2-0.2l6.6-2.6
				l-1-2.5L127.1,114.5z"/>
			<path id="XMLID_49_" class="st1" d="M129.4,111.9c0,0.4,0.1,0.7,0.2,1c0.5,1.5,1.4,2.1,2.7,1.7c0.6-0.2,1.1-0.6,1.3-1.2
				c0.2-0.6,0.2-1.3-0.1-2.1c-0.3-0.8-0.7-1.4-1.3-1.8c-0.6-0.4-1.2-0.5-1.7-0.4c-0.2,0.1-0.4,0.2-0.8,0.4l-0.1,0.1l0-1l0.1,0
				c0.2-0.1,0.4-0.1,0.5-0.1c0.5-0.2,0.9-0.5,1.1-1s0.2-1,0-1.6c-0.2-0.6-0.5-1-1-1.3s-1-0.3-1.5-0.2c-0.5,0.2-0.8,0.5-1.1,0.9
				c-0.2,0.4-0.2,0.9-0.1,1.4c0.1,0.3,0.3,0.5,0.5,0.7c0.2,0.1,0.4,0.2,0.6,0.1c0.1,0,0.3-0.2,0.4-0.3l0.1,0c0,0.6-0.3,0.9-0.8,1.1
				c-0.4,0.1-0.8,0.1-1.2-0.1c-0.4-0.2-0.6-0.6-0.8-1c-0.1-0.4-0.1-0.9,0.1-1.5c0.3-0.9,1.1-1.5,2.3-1.9c0.9-0.3,1.7-0.3,2.4,0
				c0.7,0.3,1.2,0.8,1.5,1.6c0.2,0.6,0.2,1.1,0,1.6s-0.5,0.9-0.9,1.2c-0.1,0.1-0.2,0.1-0.1,0.2c0,0.1,0.1,0.1,0.2,0.1
				c1.6,0,2.7,0.8,3.2,2.4c0.3,1,0.3,1.9-0.2,2.7s-1.2,1.4-2.3,1.7c-1,0.3-1.9,0.4-2.6,0s-1.4-1-1.9-1.9l0.1,0
				C128.6,112.9,129.1,112.4,129.4,111.9z M129.8,107.4c-0.1,0.7-0.5,1.2-1.1,1.4c-0.4,0.1-0.9,0-1.4-0.3l-0.1,0l0-0.1
				c0,0,0.1,0,0.1,0l0.3,0.1c0.3,0.1,0.6,0.1,1,0c0.2-0.1,0.4-0.2,0.6-0.5s0.3-0.5,0.3-0.8L129.8,107.4z M131,105.7l-0.1-0.1
				c-0.6-0.5-1.2-0.7-1.8-0.5c-0.3,0.1-0.6,0.3-0.7,0.6s-0.2,0.6-0.1,0.9c0.1,0.2,0.2,0.4,0.5,0.5c0,0,0,0,0,0l0,0.2
				c-0.3,0-0.6-0.3-0.7-0.6c-0.1-0.4-0.1-0.7,0.1-1c0.2-0.3,0.4-0.6,0.8-0.7c0.4-0.1,0.8-0.1,1.2,0
				C130.5,105.1,130.9,105.3,131,105.7L131,105.7z M133.9,108.7c0.5,0.3,0.9,0.6,1.2,0.9c0.3,0.3,0.5,0.7,0.7,1.2
				c0.4,1.1,0.3,2.1-0.2,3c-0.5,0.9-1.3,1.6-2.5,2c-1.2,0.4-2.3,0.3-3.2-0.3l0-0.1l0.1,0c1,0.4,2,0.4,3,0.1c1.1-0.4,1.9-1,2.4-1.9
				c0.5-0.9,0.6-1.8,0.2-2.9c-0.1-0.4-0.3-0.8-0.5-1.1c-0.2-0.3-0.6-0.6-1-1C133.9,108.8,133.9,108.8,133.9,108.7L133.9,108.7z
				 M130.1,111.8C130.1,111.9,130.1,111.9,130.1,111.8c0.1,0.6,0.2,0.9,0.3,1.1c0.3,0.8,0.8,1.3,1.5,1.5l0,0.1c-0.4,0-0.7-0.1-1-0.4
				c-0.3-0.3-0.6-0.7-0.7-1.1c-0.1-0.3-0.2-0.6-0.2-1l0-0.1L130.1,111.8z M132.5,110.1c-0.5-0.3-1.1-0.4-1.7-0.2
				c-0.3,0.1-0.5,0.2-0.6,0.3l-0.1,0L130,110c0.3-0.2,0.5-0.3,0.7-0.4C131.4,109.4,132.1,109.5,132.5,110.1L132.5,110.1z
				 M131.5,103.6c0.3,0,0.7,0.2,1.1,0.5c0.4,0.4,0.6,0.8,0.8,1.3c0.2,0.6,0.2,1.2,0,1.8c-0.2,0.6-0.5,1-0.9,1.3l-0.2-0.1
				c0.5-0.3,0.8-0.8,0.9-1.3c0.2-0.5,0.2-1,0-1.6C133,104.7,132.4,104.1,131.5,103.6C131.6,103.6,131.6,103.6,131.5,103.6z"/>
			<path id="XMLID_64_" class="st1" d="M160.8,96l3.5-0.5c1.5-0.2,2.6-0.2,3.3,0.2c0.9,0.5,1.4,1.2,1.6,2.3c0.1,0.6,0,1.2-0.2,1.7
				c-0.2,0.5-0.6,0.9-1.1,1.2c-0.5,0.3-1.4,0.5-2.6,0.7l-1,0.1l0.7,4.3l1.1,0.8l-3.6,0.6l0.9-1.2l-0.5-3.6c-0.1,0-0.1,0-0.1,0
				c-0.4,0.1-0.7,0.2-1,0.4l-0.1-0.2c0.3-0.3,0.6-0.4,0.9-0.5l0.3,0l0.1,0l-0.1-0.4c-0.1,0-0.2,0-0.2,0c-0.6,0.1-1,0.3-1.3,0.7
				l-0.1-0.1c0.2-0.7,0.7-1.1,1.4-1.2l0.1,0l-0.7-4.4L160.8,96z M168.5,95.8c0.3,0.1,0.6,0.4,0.9,0.8c0.3,0.4,0.4,0.9,0.5,1.5
				c0.2,1.3-0.1,2.3-0.9,3c-0.6,0.5-1.7,0.9-3.3,1.2c-0.3,0-0.5,0.1-0.7,0.1l0.6,3.7l1.5,1.5l-3.9,0.6l-0.2-0.2l3.7-0.6l-1.2-1.2
				l-0.6-4c0.5,0,0.9-0.1,1.5-0.2c1.3-0.2,2.3-0.6,2.9-1.3s0.8-1.5,0.6-2.7c-0.1-0.5-0.2-0.9-0.4-1.2S168.9,96.2,168.5,95.8z
				 M163.5,96.5l0.7,4.5l0.1,0l0.2,0c0,0,0.1,0,0.1,0l-0.6-4l0.9-0.1c0.7-0.1,1.1-0.1,1.4,0s0.6,0.3,0.8,0.7
				c-0.2-0.3-0.5-0.5-0.8-0.5s-0.7-0.1-1.3,0l-0.8,0.1l0.6,3.8c1-0.2,1.8-0.4,2.2-0.9c0.4-0.4,0.6-1,0.5-1.7
				c-0.1-0.8-0.4-1.4-0.9-1.7c-0.5-0.3-1.2-0.4-2.2-0.3C164.2,96.4,163.9,96.5,163.5,96.5z"/>
			<path id="XMLID_68_" class="st1" d="M169.8,94.7l3.7-0.4l-0.9,1.4l1.1,9.4l1.1,0.8l-3.7,0.4l1-1.2l-1.1-9.4L169.8,94.7z
				 M173.9,94.7l-0.7,1l1.1,9.2l1.5,1.5l-4.1,0.5l-0.2-0.2l3.8-0.5l-1.2-1.2l-1.1-9.4l0.8-1.1L173.9,94.7z"/>
			<path id="XMLID_71_" class="st1" d="M183.2,93.3l-0.1,0.2c-0.5,0.8-0.8,1.7-1,2.7c-0.1-0.1-0.1-0.2-0.1-0.3
				c-0.4-0.7-0.7-1.1-1.1-1.3c-0.3-0.2-1-0.2-1.8-0.2c-0.4,0-0.9,0.1-1.4,0.2l0.4,4.2l0.5,0l-0.3-3.7c0.4-0.1,0.8-0.1,1.1-0.2
				c0.7-0.1,1.2,0,1.5,0.1s0.6,0.4,0.9,0.9c-0.1-0.1-0.1-0.1-0.2-0.1c-0.5-0.3-0.8-0.6-1-0.6s-0.6-0.1-1.1,0c-0.2,0-0.5,0.1-0.9,0.1
				l-0.2,0l0.3,3.4l1.4-0.1l0.9-1.7l0.3,3.9l-1.1-1.4l-2.1,0.2l0.4,5.1l0.5,0l-0.4-4.7l1.7-0.2l0.2,0.2l-1.7,0.2l0.4,4.4
				c1.1-0.1,1.8-0.2,2.3-0.5s0.8-0.6,1-1.1l0.3-0.9c0,0,0-0.1,0.1-0.2c0.2,0.7,0.4,1.2,0.6,1.5c0.2,0.4,0.6,0.8,1.1,1.3l-8.8,0.8
				l1.1-1.2l-0.4-4c-0.4,0.1-0.8,0.3-1.2,0.6l-0.1-0.2c0.3-0.3,0.7-0.5,1.3-0.6l0-0.4c-0.1,0-0.2,0-0.2,0c-0.5,0-1,0.3-1.4,0.8
				c0.2-1,0.7-1.5,1.5-1.6l-0.3-3.9l-1.3-1L183.2,93.3z M185.5,104.7l-0.3,0.9l-8.6,0.8l-0.1-0.2l8.6-0.8l0.2-0.6
				c-0.8-0.7-1.4-1.5-1.8-2.4l0.3,0.1c0.4,0.7,0.9,1.5,1.7,2.2L185.5,104.7z M181.5,97.1l0.4,4l-0.2-0.1l-0.4-4L181.5,97.1z
				 M183.6,93.9L183.6,93.9c-0.6,1.1-1,2-1.1,2.7l-0.2-0.2c0.3-1,0.6-1.9,1.1-2.7L183.6,93.9z"/>
			<path id="XMLID_76_" class="st1" d="M184.8,93.2l3.7-0.2l-1,1.2l0.2,5.5l0.4-0.6l-0.2-4.8l0.8-1l0.1,0.2l-0.8,0.9l0.2,4.4
				l2.3-3.5c0.3-0.5,0.5-0.9,0.5-1.3c0-0.2-0.1-0.4-0.3-0.6c-0.2-0.2-0.5-0.3-0.7-0.4l0-0.1l4.2-0.2l0,0.1c-0.9,0.3-1.8,1.2-2.8,2.7
				l-1,1.5l3.2,6.4l1.4,0.9l-4.1,0.2l1-0.9l-2.2-4.4l-1.2,1.9l0.1,2.6l1.4,1.7l-4,0.2l-0.2-0.2l3.8-0.2l-1.1-1.3l-0.1-2.8l1.3-2
				l-0.2-0.4l-1.5,2.3l0.1,2.8l1,0.9l-3.6,0.2l1-1.1l-0.4-9.5L184.8,93.2z M194.5,93.6c-0.8,0.1-1.5,0.7-2.3,1.7l-1.3,1.8l3.1,6.4
				l2.3,1.6l-5,0.2l-0.2-0.2l4.6-0.2l-1.7-1.2l-3.2-6.5l1.4-2c0.7-1,1.5-1.6,2.3-1.7L194.5,93.6z"/>
			<path id="XMLID_91_" class="st1" d="M203.1,92.7l-0.8,1.1l1.3,4l0.3-0.2l-1.1-3.6l0.8-1.1l0.2,0.1l-0.8,1.1l1.1,3.4
				c0.1-0.1,0.1-0.1,0.1-0.1l0.3-0.3c0.2-0.1,0.3-0.2,0.3-0.3c0.1,0.7,0.3,1.3,0.6,1.9c-0.2,0-0.3,0-0.3,0c-0.5,0-0.9,0.1-1.1,0.3
				l1.4,4.5l1.2,1.1l-4,0l1.1-1l-0.8-2.7c-0.6,0.7-1,1.3-1.4,1.9l-0.2-0.1c0.3-0.6,0.8-1.2,1.4-2l0.1-0.1l-0.1-0.4
				c-0.6,0.6-1.2,1.3-1.6,2.1l-0.1-0.3c-0.3-0.5-0.6-1.1-1-1.7l-0.1-0.1c-0.4,1-0.6,1.9-0.6,2.5c0,0.4,0,0.7,0.2,1s0.4,0.7,0.8,1.3
				c0,0.1,0.1,0.1,0.2,0.3l-4.3,0l-0.2-0.2l4,0l-0.1-0.2c-0.3-0.5-0.6-0.9-0.7-1.1s-0.2-0.6-0.2-1c0-0.6,0.2-1.5,0.7-2.8l-0.3-0.4
				c-0.1,0.2-0.2,0.5-0.3,0.9l-0.3,0.9c-0.1,0.5-0.2,0.9-0.2,1.2c0,0.3,0,0.6,0.1,0.8s0.3,0.5,0.6,0.9c0,0,0.1,0.1,0.1,0.2l-4,0
				c0.8-0.4,1.4-1,1.8-1.8s0.9-1.9,1.3-3.5l0-0.1c-0.3-0.3-0.7-0.4-1.2-0.5c0.3-0.5,0.5-1,0.7-1.5c0.1,0.1,0.1,0.1,0.1,0.1l0.4,0.4
				c0.1,0.1,0.3,0.3,0.4,0.4l0.1-0.4l-0.1-0.1c-0.3-0.3-0.5-0.5-0.7-0.7l-0.1-0.1l0.1-0.2c0.3,0.2,0.5,0.5,0.8,0.7l1.1-3.4l-0.8-1
				L203.1,92.7z M200.8,94.6l-1.3,3.8c0.4,0.5,0.7,0.9,1,1.4l0.4,0.6c0,0,0,0,0.1,0.1c0-0.1,0.1-0.1,0.1-0.1l0.1-0.2
				c0,0,0-0.1,0.1-0.1c-0.4-0.7-0.8-1.3-1.3-1.8l1-3.1L200.8,94.6z M201.1,95.6l-0.9,2.6c0,0.1,0.1,0.1,0.1,0.1l0.3,0.4
				c0.2,0.2,0.4,0.6,0.7,1l0.1,0.1c0.2-0.3,0.5-0.6,0.8-1L201.1,95.6z M205.4,97.2c0.1,0.5,0.4,1.3,0.8,2.3c-0.1,0-0.2,0-0.2,0
				l-0.6-0.1c-0.3,0-0.5-0.1-0.6-0.1c0,0-0.1,0-0.2,0l1.3,4l1.7,1.8l-4.6-0.1l-0.1-0.2l4.2,0l-1.4-1.5l-1.4-4.3
				c0.2-0.1,0.4-0.1,0.6-0.1c0.3,0,0.6,0,0.9,0.1l-0.1-0.2c-0.3-0.7-0.5-1.4-0.7-1.9L205.4,97.2z"/>
			<path id="XMLID_96_" class="st1" d="M208.4,93.9c1.3-0.8,2.7-1.1,4.1-1c1.1,0.1,2,0.4,2.7,1c0.7,0.6,1,1.3,1,2.2
				c0,0.7-0.3,1.3-0.8,1.8c-0.5,0.5-1.2,0.9-2,1.1c0.3,1.2,0.7,2.3,1.3,3.4c0.6,1.1,1.2,2,1.7,2.6l-0.1,0c-0.8,0.3-1.6,0.7-2.4,1.2
				l-0.1,0.1l0-0.3c-0.2-2.4-0.6-4.4-1.1-6l0-0.1c-0.4,0.2-0.9,0.3-1.5,0.4l-0.1,0l-0.2,3.4l1.3,1.8l-4.1-0.2L208,105l3.8,0.2
				l-1.1-1.5l0.2-3.7l0.2,0c0.6,0,1.1-0.2,1.5-0.3c0-0.1,0-0.1,0-0.1l-0.1-0.3c0,0,0-0.1,0-0.1c-0.3,0.1-1,0.2-1.9,0.3l-0.1,0
				l-0.2,4l0.8,1.1l-3.5-0.2l1.1-1l0.2-3l-0.1,0c-0.3,0.1-0.6,0.1-0.8,0.2l-0.1,0l-0.1-0.2c0.2-0.1,0.4-0.2,0.6-0.2l0.4-0.1l0.1,0
				l0-0.5c-0.3,0-0.7,0-1.2,0.2l-0.1,0c0-0.1,0.1-0.3,0.2-0.6c0,0,0.1-0.2,0.1-0.4c0,0,0,0,0-0.1c0.2,0,0.4,0,0.6,0.1
				c0.1,0,0.3,0,0.4,0l0.2-4.5C208.9,94.2,208.7,94.1,208.4,93.9L208.4,93.9z M210.8,93.8l-0.3,4.9c0.2,0,0.3,0,0.4,0l0.2-4.5
				c0.3-0.1,0.6-0.1,1-0.1c1,0.1,1.7,0.5,2,1.3c-0.4-0.4-0.7-0.6-1-0.8c-0.3-0.2-0.6-0.2-1-0.3c-0.3,0-0.6,0-0.9,0.1l-0.2,4.3l0.1,0
				c1-0.2,1.8-0.5,2.4-0.9s0.8-1,0.8-1.8c0-0.7-0.2-1.2-0.6-1.7c-0.4-0.5-1-0.7-1.7-0.7C211.6,93.5,211.1,93.6,210.8,93.8z
				 M214.3,99.4c0.3,1.3,0.8,2.5,1.6,3.7c0.5,0.8,1.1,1.5,1.9,2.1c-1.2,0.3-2.4,0.8-3.5,1.5l-0.1,0.1l-0.2-0.2
				c1-0.7,2.1-1.2,3.3-1.5c-1.5-1.2-2.6-3.2-3.3-5.8l0-0.2c1.6-0.6,2.5-1.6,2.6-3.1c0-0.6-0.1-1.3-0.5-2c0.5,0.6,0.7,1.3,0.7,2.2
				C216.7,97.8,215.9,98.8,214.3,99.4z"/>
			<path id="XMLID_100_" class="st1" d="M227.3,94.2c-0.6,0.3-1,0.6-1.2,0.9c-0.3,0.4-0.5,1.1-0.6,2l-0.1,0.6l-0.7,8l-1.3-0.1
				l-2.9-8.6l-0.5,4.9l0,0.4l0,1.3c0,0.6,0.2,1.1,0.6,1.4l0.1,0.1c-0.7-0.3-1-1.3-0.8-2.8l0.1-0.8l0.5-4.9l-0.3-1l-0.5,5.2
				c-0.2,1.7-0.2,2.7,0,3.3c0.1,0.5,0.5,0.9,1.2,1.2l0.6,0.9l-4.3-0.4l-0.1-0.3l3.9,0.4l-0.4-0.5l-3.7-0.3c0.7-0.2,1.1-0.5,1.4-0.9
				c0.3-0.4,0.4-1.2,0.5-2.3l0.7-7.2l-1-1.1l4,0.4l-1.2,0.8l3,8.9l0.1-1.1l-2.6-7.6l1.2-0.8l0.1,0.2l-1,0.7l2.4,7l0.4-4.2l0-0.5
				c0.1-1,0.1-1.8,0-2.1s-0.5-0.7-1-1.1L227.3,94.2z M227.5,94.9l-0.2,0.3c-0.4,0.1-0.7,0.2-0.9,0.5c-0.2,0.3-0.3,0.8-0.4,1.5
				l-0.9,9.3l-1.7-0.2l-0.1-0.3l1.6,0.1l0.8-9c0.1-0.8,0.2-1.4,0.5-1.8C226.6,95.1,227,94.9,227.5,94.9z"/>
			<path id="XMLID_103_" class="st1" d="M228,94.3l3.7,0.5l-1.2,1.1l-1.2,9.4l0.9,1.1l-3.7-0.5l1.2-0.9l1.2-9.4L228,94.3z M232,95.3
				l-0.9,0.8l-1.1,9.2l1.1,1.9l-4.1-0.5l-0.2-0.3l3.8,0.5l-0.9-1.5l1.2-9.4l1-0.9L232,95.3z"/>
			<path id="XMLID_106_" class="st1" d="M240.1,96l-1,0.9l0.6,4.1l0.3-0.1l-0.6-3.7l1-1l0.2,0.1l-1,0.9l0.5,3.5
				c0.1,0,0.1-0.1,0.1-0.1l0.3-0.2c0.2-0.1,0.3-0.2,0.3-0.3c0,0.7,0.1,1.3,0.3,1.9c-0.1,0-0.3-0.1-0.3-0.1c-0.5-0.1-0.9,0-1.1,0.1
				l0.7,4.6l1,1.2l-3.9-0.6l1.2-0.9l-0.4-2.8c-0.7,0.6-1.2,1.1-1.6,1.7l-0.2-0.1c0.4-0.5,1-1.1,1.7-1.7l0.1-0.1l-0.1-0.4
				c-0.7,0.5-1.3,1.1-1.9,1.8l-0.1-0.3c-0.2-0.5-0.4-1.2-0.8-1.9l-0.1-0.1c-0.6,1-0.9,1.8-1,2.4c-0.1,0.4-0.1,0.7,0,1
				c0.1,0.3,0.3,0.8,0.6,1.4c0,0.1,0.1,0.2,0.1,0.3l-4.2-0.7l-0.1-0.3l4,0.6l-0.1-0.2c-0.3-0.5-0.4-0.9-0.5-1.2
				c-0.1-0.3-0.1-0.6,0-1c0.1-0.6,0.5-1.5,1.1-2.6l-0.3-0.5c-0.1,0.2-0.2,0.4-0.4,0.8l-0.4,0.9c-0.2,0.5-0.4,0.9-0.4,1.2
				c-0.1,0.3,0,0.6,0,0.9c0.1,0.2,0.2,0.6,0.5,1c0,0,0.1,0.1,0.1,0.2l-3.9-0.6c0.8-0.3,1.5-0.8,2.1-1.5s1.2-1.8,1.9-3.3l0.1-0.1
				c-0.2-0.3-0.6-0.5-1.1-0.7c0.4-0.4,0.7-0.9,0.9-1.4c0.1,0.1,0.1,0.1,0.1,0.2l0.3,0.4c0.1,0.2,0.2,0.3,0.4,0.5l0.2-0.4l-0.1-0.1
				c-0.2-0.3-0.4-0.6-0.6-0.7l-0.1-0.1l0.2-0.2c0.2,0.3,0.5,0.5,0.7,0.9l1.6-3.2l-0.7-1.2L240.1,96z M237.5,97.5l-1.9,3.6
				c0.3,0.5,0.6,1,0.8,1.5l0.3,0.6c0,0,0,0,0.1,0.1c0.1,0,0.1-0.1,0.1-0.1l0.1-0.1c0,0,0.1-0.1,0.1-0.1c-0.3-0.7-0.6-1.4-1-2
				l1.5-2.9L237.5,97.5z M237.7,98.6l-1.3,2.5c0,0.1,0.1,0.1,0.1,0.1l0.3,0.5c0.1,0.2,0.3,0.6,0.5,1.1l0.1,0.1
				c0.3-0.3,0.6-0.6,1-0.8L237.7,98.6z M241.6,100.8c0,0.6,0.2,1.3,0.5,2.4c-0.1,0-0.2-0.1-0.2-0.1l-0.6-0.2
				c-0.3-0.1-0.5-0.1-0.6-0.1c0,0-0.1,0-0.2,0l0.7,4.2l1.5,2l-4.5-0.7L238,108l4.1,0.7L241,107l-0.7-4.4c0.2,0,0.4,0,0.6,0
				c0.3,0,0.6,0.1,0.9,0.2l-0.1-0.2c-0.2-0.8-0.3-1.4-0.4-2L241.6,100.8z"/>
			<path id="XMLID_111_" class="st1" d="M275.6,114.8l-0.8,2.4l-6.9-2.4c0.5-0.9,1.1-1.6,1.8-2.1c0.7-0.5,1.6-1,2.7-1.3
				c1-0.3,1.7-0.6,2.1-0.8c0.8-0.5,1.3-1.2,1.6-2.1c0.2-0.7,0.3-1.3,0.1-1.9c-0.2-0.5-0.6-0.9-1.3-1.1c-0.5-0.2-1-0.2-1.5,0.1
				c-0.5,0.2-0.8,0.6-1,1.1c-0.1,0.4-0.2,0.8,0,1.2c0.1,0.4,0.3,0.6,0.7,0.7c0.3,0.1,0.7,0.1,1.1-0.2l0.1,0.1
				c-0.2,0.4-0.5,0.7-0.9,0.9c-0.4,0.2-0.8,0.2-1.2,0c-0.6-0.2-1-0.6-1.2-1.1c-0.2-0.5-0.2-1.1,0-1.8c0.3-0.8,0.8-1.4,1.6-1.8
				c0.8-0.3,1.6-0.3,2.5,0c1,0.3,1.7,0.9,2.1,1.8c0.5,0.9,0.5,1.8,0.2,2.7c-0.5,1.3-1.7,2.2-3.7,2.7l-1.4,0.3c-1,0.2-2,0.8-2.8,1.6
				c0,0,0,0-0.1,0.1l0.5,0.2c0.7-0.7,1.6-1.2,2.9-1.5l1.3-0.3c1-0.2,1.8-0.6,2.4-1c0.6-0.4,1-1,1.2-1.8c0.4-1.1,0.3-2.2-0.3-3.2
				l0.1-0.1c0.8,0.9,0.9,2,0.4,3.3c-0.5,1.5-1.8,2.5-3.8,2.9l-1.2,0.3c-1.3,0.3-2.2,0.7-2.7,1.3l2.3,0.8c0.9,0.3,1.6,0.5,2,0.4
				s0.7-0.3,1-0.7L275.6,114.8z M276.1,115.3l-1,2.8l-6.8-2.4l-0.1-0.3l6.7,2.4l0.9-2.6L276.1,115.3z M274.5,109.1
				c-0.4,0.6-0.8,0.9-1.2,1.1c-0.4,0.2-0.9,0.2-1.4,0c-0.7-0.2-1-0.7-1.2-1.5l0.1,0l0.1,0.1c0.2,0.4,0.3,0.6,0.5,0.8
				c0.1,0.2,0.3,0.3,0.6,0.4c1,0.3,1.8,0,2.4-1L274.5,109.1z M275.9,108.6c0.1-1.2-0.3-1.9-1.2-2.2c-0.4-0.1-0.7-0.1-1.1,0
				c-0.3,0.2-0.6,0.4-0.7,0.8c-0.2,0.5-0.1,0.9,0.3,1.3l0,0.1c-0.2-0.1-0.4-0.4-0.5-0.6c-0.1-0.3-0.1-0.6,0-0.9
				c0.2-0.4,0.4-0.7,0.8-0.9c0.4-0.2,0.8-0.2,1.2-0.1c0.5,0.2,0.9,0.5,1.1,1S276.1,108,275.9,108.6z"/>
			<path id="XMLID_116_" class="st1" d="M284.2,108.2c0.9,0.4,1.6,1.1,1.9,2.2c0.5,1.4,0.3,3.1-0.5,5.1c-0.7,1.7-1.5,2.8-2.6,3.5
				c-1,0.7-2.1,0.8-3.2,0.4c-1.1-0.5-1.8-1.4-2.1-2.7c-0.3-1.3-0.1-2.8,0.6-4.5c0.7-1.6,1.5-2.8,2.6-3.6S283.1,107.8,284.2,108.2z
				 M286.1,109.4c0.6,0.7,0.9,1.6,0.9,2.7c0,1.1-0.2,2.3-0.8,3.6c-0.9,2.2-2,3.6-3.3,4.3c-1.1,0.6-2.1,0.6-3.2,0.2
				c-0.5-0.2-0.9-0.5-1.2-0.8s-0.6-0.8-0.8-1.4l0.1,0c0.4,1,1.1,1.6,1.9,2c1.2,0.5,2.4,0.4,3.5-0.4s2-2,2.8-3.9
				c0.5-1.3,0.8-2.5,0.8-3.5C286.8,111.1,286.6,110.2,286.1,109.4L286.1,109.4z M283.9,109c-0.8-0.3-1.5-0.2-2.1,0.5
				c-0.7,0.6-1.3,1.8-2,3.5c-1.3,3.2-1.2,5.2,0.4,5.8c1.4,0.6,2.8-0.7,4.1-3.9c0.7-1.8,1-3.1,1-4C285.1,109.9,284.7,109.3,283.9,109
				z M284.9,111.1c-0.1-0.7-0.5-1.2-1.1-1.4c-0.6-0.2-1.2-0.1-1.7,0.5c-0.6,0.6-1.1,1.6-1.8,3.2c-0.5,1.3-0.8,2.4-0.9,3.2
				s0.1,1.4,0.6,1.9l0,0.1c-0.3-0.2-0.6-0.6-0.7-1.2c-0.2-0.8,0.1-2.2,0.9-4.2c0.6-1.6,1.2-2.6,1.8-3.2c0.6-0.6,1.2-0.7,1.9-0.4
				c0.6,0.3,1,0.8,1.1,1.6L284.9,111.1z"/>
			<path id="XMLID_121_" class="st1" d="M292.6,122.1l-1.1,2.3l-6.7-3.1c0.6-0.8,1.3-1.4,2-1.9c0.8-0.5,1.7-0.8,2.8-1
				c1-0.2,1.7-0.4,2.1-0.6c0.8-0.4,1.4-1,1.8-1.9c0.3-0.7,0.4-1.3,0.2-1.8c-0.2-0.5-0.5-1-1.1-1.2c-0.5-0.2-1-0.3-1.5-0.1
				c-0.5,0.2-0.8,0.5-1.1,1c-0.2,0.4-0.2,0.8-0.2,1.2s0.3,0.6,0.6,0.8c0.3,0.1,0.7,0.1,1.1-0.1l0.1,0.1c-0.3,0.4-0.6,0.7-1,0.8
				c-0.4,0.1-0.8,0.1-1.2-0.1c-0.5-0.3-0.9-0.7-1.1-1.2c-0.2-0.6-0.1-1.1,0.2-1.7c0.4-0.8,1-1.3,1.8-1.6c0.8-0.3,1.7-0.2,2.5,0.2
				c0.9,0.4,1.6,1.1,1.9,2c0.4,0.9,0.3,1.8-0.1,2.7c-0.6,1.3-1.9,2-3.9,2.3l-1.4,0.2c-1,0.1-2,0.6-2.9,1.3c0,0,0,0-0.1,0l0.5,0.2
				c0.7-0.6,1.7-1,3-1.2l1.3-0.1c1-0.1,1.8-0.4,2.5-0.8c0.6-0.4,1.1-0.9,1.4-1.6c0.5-1.1,0.5-2.1,0-3.2l0.1,0c0.7,1,0.7,2.1,0.1,3.3
				c-0.7,1.4-2,2.3-4,2.5l-1.3,0.2c-1.4,0.2-2.3,0.5-2.8,1l2.2,1c0.9,0.4,1.6,0.6,1.9,0.6c0.4,0,0.7-0.2,1-0.6L292.6,122.1z
				 M293.1,122.7l-1.3,2.7l-6.5-3l0-0.3l6.4,3l1.2-2.5L293.1,122.7z M292.1,116.3c-0.4,0.5-0.9,0.8-1.3,1c-0.4,0.1-0.9,0.1-1.4-0.1
				c-0.6-0.3-1-0.8-1-1.6l0.1,0l0,0.1c0.1,0.4,0.3,0.7,0.4,0.8c0.1,0.2,0.3,0.3,0.6,0.4c1,0.4,1.8,0.2,2.5-0.8L292.1,116.3z
				 M293.6,115.9c0.2-1.2-0.1-2-1-2.4c-0.4-0.2-0.7-0.2-1.1-0.1c-0.4,0.1-0.6,0.4-0.8,0.7c-0.2,0.5-0.2,0.9,0.2,1.3l-0.1,0.1
				c-0.2-0.2-0.4-0.4-0.4-0.7c-0.1-0.3,0-0.6,0.1-0.9c0.2-0.4,0.5-0.7,0.9-0.8c0.4-0.1,0.8-0.1,1.2,0.1c0.5,0.2,0.8,0.6,1,1.1
				S293.8,115.4,293.6,115.9z"/>
			<path id="XMLID_126_" class="st1" d="M302,123.6c0.1,0.6,0.2,1.1,0.1,1.5c0,0.4-0.2,0.8-0.4,1.3c-0.6,1-1.3,1.7-2.3,2
				c-1,0.3-2.1,0.1-3.2-0.5c-1.2-0.6-1.8-1.5-2-2.5l0,0l0,0.1c0.4,1,1.1,1.7,2.1,2.3c1,0.5,2,0.7,3,0.4c1-0.3,1.7-0.9,2.2-1.8
				c0.2-0.4,0.3-0.8,0.4-1.1c0.1-0.4,0.1-0.8,0-1.4C301.9,123.7,301.9,123.7,302,123.6L302,123.6z M296.6,122.5
				c-0.2,0.3-0.4,0.6-0.6,0.9c-0.8,1.4-0.6,2.5,0.6,3.1c0.6,0.3,1.2,0.4,1.7,0.1c0.6-0.2,1-0.7,1.4-1.5c0.4-0.7,0.6-1.5,0.5-2.2
				c-0.1-0.7-0.4-1.2-0.9-1.5c-0.2-0.1-0.4-0.2-0.8-0.3l-0.1,0l0.7-0.7l0.1,0c0.2,0.1,0.3,0.2,0.4,0.2c0.5,0.3,1,0.3,1.5,0.1
				s0.9-0.5,1.2-1.1c0.3-0.5,0.3-1.1,0.2-1.6c-0.1-0.6-0.5-1-1-1.2c-0.5-0.2-0.9-0.3-1.4-0.2s-0.8,0.4-1,0.9
				c-0.2,0.3-0.2,0.6-0.2,0.8c0,0.2,0.1,0.4,0.3,0.5c0.1,0.1,0.3,0.1,0.5,0l0.1,0.1c-0.4,0.4-0.9,0.4-1.4,0.2
				c-0.4-0.2-0.6-0.5-0.7-0.9c-0.1-0.4,0-0.9,0.2-1.3c0.2-0.4,0.6-0.7,1.1-1c0.9-0.4,1.9-0.2,3,0.4c0.8,0.4,1.4,1,1.7,1.8
				s0.2,1.5-0.1,2.2c-0.3,0.5-0.7,0.9-1.1,1.1c-0.5,0.2-1,0.3-1.5,0.2c-0.1,0-0.2,0-0.2,0c0,0.1,0,0.1,0.1,0.2
				c1.1,1.2,1.2,2.5,0.5,4c-0.5,0.9-1.2,1.5-2.1,1.7c-0.9,0.2-1.8,0-2.9-0.5c-0.9-0.5-1.6-1.1-1.8-1.9c-0.3-0.7-0.2-1.6,0.1-2.7
				l0.1,0C295.3,122.7,296,122.6,296.6,122.5z M297.1,123C297.1,123.1,297,123.1,297.1,123c-0.4,0.5-0.5,0.8-0.6,1
				c-0.4,0.8-0.4,1.5,0,2.1l0,0.1c-0.3-0.3-0.4-0.6-0.4-1s0.1-0.9,0.3-1.3c0.1-0.2,0.3-0.5,0.6-0.9l0-0.1L297.1,123z M300.1,119.8
				c-0.6,0.4-1.2,0.5-1.7,0.2c-0.4-0.2-0.6-0.6-0.8-1.2l0-0.1l0,0c0,0,0,0.1,0,0.1l0.1,0.3c0.1,0.3,0.3,0.5,0.7,0.7
				c0.2,0.1,0.5,0.2,0.8,0.1c0.3,0,0.5-0.1,0.8-0.3L300.1,119.8z M300,123.5c-0.1-0.6-0.5-1.1-1.1-1.4c-0.2-0.1-0.5-0.2-0.7-0.2
				l-0.1,0l0.1-0.2c0.3,0.1,0.6,0.2,0.8,0.3C299.8,122.3,300.1,122.9,300,123.5L300,123.5z M302.1,119.5l0-0.1
				c0-0.8-0.4-1.4-0.9-1.7c-0.3-0.2-0.6-0.2-0.9-0.1s-0.5,0.3-0.7,0.6c-0.1,0.2-0.1,0.4,0,0.7c0,0,0,0,0,0l-0.1,0.1
				c-0.2-0.3-0.2-0.6,0-0.9c0.2-0.3,0.5-0.6,0.8-0.7c0.4-0.1,0.7-0.1,1.1,0.1c0.4,0.2,0.6,0.5,0.8,0.8
				C302.3,118.7,302.3,119.1,302.1,119.5L302.1,119.5z M304.1,118.4c0.2,0.2,0.4,0.6,0.3,1.1s-0.1,1-0.4,1.5c-0.3,0.5-0.7,1-1.3,1.2
				c-0.5,0.3-1.1,0.3-1.6,0.2l-0.1-0.2c0.6,0.1,1.1,0,1.6-0.2s0.9-0.6,1.1-1.1C304.2,120.2,304.3,119.4,304.1,118.4
				C304.1,118.4,304.1,118.4,304.1,118.4z"/>
		</g>
		<path id="XMLID_2_" class="st0" d="M282.1,224.3c-3,32-37,38.2-82.7,38.2s-82.7-6.8-82.7-38.2s37-63.4,82.7-63.4
			S285,193.1,282.1,224.3z"/>
		<g id="XMLID_10_">
			<path id="XMLID_38_" class="st1" d="M164.1,167.8c0,0-0.4,0.7-1,1.9c-0.6,1.2-1.5,3-2.2,5.1c-0.4,1.1-0.7,2.2-0.9,3.4
				c-0.2,1.2-0.2,2.4,0,3.4c0.3,1,0.8,1.7,1.7,2.4c0.2,0.2,0.4,0.3,0.7,0.4c0.3,0.1,0.5,0.3,0.8,0.4c0.3,0.1,0.6,0.2,0.9,0.3
				l1.1,0.3c0.4,0.1,0.7,0.2,1.2,0.4c0.4,0.2,0.9,0.4,1.3,0.6c0.4,0.2,0.8,0.4,1.2,0.7c0.4,0.3,0.8,0.5,1.2,0.9
				c1.5,1.2,2.7,3.2,2.9,5.2c0.2,1.9-0.2,3.6-0.8,5c-0.6,1.4-1.3,2.5-2.1,3.5c-1.5,2-3,3.3-4.1,4.2c-1.1,0.9-1.8,1.3-1.8,1.3
				s0.4-0.7,1.1-1.9c0.7-1.2,1.7-2.9,2.6-4.9c0.4-1,0.9-2.1,1.1-3.3c0.3-1.1,0.4-2.3,0.1-3.3c-0.2-1-0.8-1.7-1.7-2.4
				c-0.2-0.2-0.5-0.3-0.7-0.5l-0.8-0.4l-0.8-0.3c-0.3-0.1-0.7-0.2-1.1-0.3l-1.1-0.4c-0.4-0.1-0.9-0.3-1.3-0.5l-0.6-0.3l-0.6-0.4
				c-0.4-0.2-0.8-0.5-1.2-0.8c-1.6-1.2-2.7-3.2-2.9-5.1c-0.2-1.9,0.1-3.6,0.7-5c0.5-1.4,1.2-2.6,1.9-3.6c1.4-2.1,2.8-3.5,3.8-4.5
				C163.4,168.3,164.1,167.8,164.1,167.8z"/>
		</g>
		<g id="XMLID_9_">
			<path id="XMLID_36_" class="st1" d="M238.5,168.3c0,0-0.4,0.7-1,1.9c-0.6,1.2-1.5,3-2.2,5.1c-0.4,1.1-0.7,2.2-0.9,3.4
				c-0.2,1.2-0.2,2.4,0,3.4c0.3,1,0.8,1.7,1.7,2.4c0.2,0.2,0.4,0.3,0.7,0.4c0.3,0.1,0.5,0.3,0.8,0.4c0.3,0.1,0.6,0.2,0.9,0.3
				l1.1,0.3c0.4,0.1,0.7,0.2,1.2,0.4c0.4,0.2,0.9,0.4,1.3,0.6c0.4,0.2,0.8,0.4,1.2,0.7c0.4,0.3,0.8,0.5,1.2,0.9
				c1.5,1.2,2.7,3.2,2.9,5.2c0.2,1.9-0.2,3.6-0.8,5c-0.6,1.4-1.3,2.5-2.1,3.5c-1.5,2-3,3.3-4.1,4.2c-1.1,0.9-1.8,1.3-1.8,1.3
				s0.4-0.7,1.1-1.9c0.7-1.2,1.7-2.9,2.6-4.9c0.4-1,0.9-2.1,1.1-3.3c0.3-1.1,0.4-2.3,0.1-3.3c-0.2-1-0.8-1.7-1.7-2.4
				c-0.2-0.2-0.5-0.3-0.7-0.5l-0.8-0.4l-0.8-0.3c-0.3-0.1-0.7-0.2-1.1-0.3l-1.1-0.4c-0.4-0.1-0.9-0.3-1.3-0.5l-0.6-0.3l-0.6-0.4
				c-0.4-0.2-0.8-0.5-1.2-0.8c-1.6-1.2-2.7-3.2-2.9-5.1c-0.2-1.9,0.1-3.6,0.7-5c0.5-1.4,1.2-2.6,1.9-3.6c1.4-2.1,2.8-3.5,3.8-4.5
				C237.8,168.8,238.5,168.3,238.5,168.3z"/>
		</g>
		<g id="XMLID_8_">
			<path id="XMLID_31_" class="st1" d="M199.1,161.1c0,0-0.4,0.7-1,1.9c-0.6,1.2-1.5,3-2.2,5.1c-0.4,1.1-0.7,2.2-0.9,3.4
				c-0.2,1.2-0.2,2.4,0,3.4c0.3,1,0.8,1.7,1.7,2.4c0.2,0.2,0.4,0.3,0.7,0.4c0.3,0.1,0.5,0.3,0.8,0.4c0.3,0.1,0.6,0.2,0.9,0.3
				l1.1,0.3c0.4,0.1,0.7,0.2,1.2,0.4c0.4,0.2,0.9,0.4,1.3,0.6c0.4,0.2,0.8,0.4,1.2,0.7c0.4,0.3,0.8,0.5,1.2,0.9
				c1.5,1.2,2.7,3.2,2.9,5.2c0.2,1.9-0.2,3.6-0.8,5c-0.6,1.4-1.3,2.5-2.1,3.5c-1.5,2-3,3.3-4.1,4.2c-1.1,0.9-1.8,1.3-1.8,1.3
				s0.4-0.7,1.1-1.9c0.7-1.2,1.7-2.9,2.6-4.9c0.4-1,0.9-2.1,1.1-3.3c0.3-1.1,0.4-2.3,0.1-3.3c-0.2-1-0.8-1.7-1.7-2.4
				c-0.2-0.2-0.5-0.3-0.7-0.5l-0.8-0.4l-0.8-0.3c-0.3-0.1-0.7-0.2-1.1-0.3l-1.1-0.4c-0.4-0.1-0.9-0.3-1.3-0.5l-0.6-0.3l-0.6-0.4
				c-0.4-0.2-0.8-0.5-1.2-0.8c-1.6-1.2-2.7-3.2-2.9-5.1c-0.2-1.9,0.1-3.6,0.7-5c0.5-1.4,1.2-2.6,1.9-3.6c1.4-2.1,2.8-3.5,3.8-4.5
				C198.5,161.6,199.1,161.1,199.1,161.1z"/>
		</g>
		<g id="XMLID_5_">
			<path id="XMLID_29_" class="st1" d="M162.6,129.2c0,0-0.4,0.7-1,1.9c-0.6,1.2-1.5,3-2.2,5.1c-0.4,1.1-0.7,2.2-0.9,3.4
				c-0.2,1.2-0.2,2.4,0,3.4c0.3,1,0.8,1.7,1.7,2.4c0.2,0.2,0.4,0.3,0.7,0.4c0.3,0.1,0.5,0.3,0.8,0.4c0.3,0.1,0.6,0.2,0.9,0.3
				l1.1,0.3c0.4,0.1,0.7,0.2,1.2,0.4c0.4,0.2,0.9,0.4,1.3,0.6c0.4,0.2,0.8,0.4,1.2,0.7c0.4,0.3,0.8,0.5,1.2,0.9
				c1.5,1.2,2.7,3.2,2.9,5.2c0.2,1.9-0.2,3.6-0.8,5c-0.6,1.4-1.3,2.5-2.1,3.5c-1.5,2-3,3.3-4.1,4.2c-1.1,0.9-1.8,1.3-1.8,1.3
				s0.4-0.7,1.1-1.9c0.7-1.2,1.7-2.9,2.6-4.9c0.4-1,0.9-2.1,1.1-3.3c0.3-1.1,0.4-2.3,0.1-3.3c-0.2-1-0.8-1.7-1.7-2.4
				c-0.2-0.2-0.5-0.3-0.7-0.5l-0.8-0.4l-0.8-0.3c-0.3-0.1-0.7-0.2-1.1-0.3l-1.1-0.4c-0.4-0.1-0.9-0.3-1.3-0.5l-0.6-0.3l-0.6-0.4
				c-0.4-0.2-0.8-0.5-1.2-0.8c-1.6-1.2-2.7-3.2-2.9-5.1c-0.2-1.9,0.1-3.6,0.7-5c0.5-1.4,1.2-2.6,1.9-3.6c1.4-2.1,2.8-3.5,3.8-4.5
				C162,129.7,162.6,129.2,162.6,129.2z"/>
		</g>
		<g id="XMLID_4_">
			<path id="XMLID_26_" class="st1" d="M237,129.7c0,0-0.4,0.7-1,1.9c-0.6,1.2-1.5,3-2.2,5.1c-0.4,1.1-0.7,2.2-0.9,3.4
				c-0.2,1.2-0.2,2.4,0,3.4c0.3,1,0.8,1.7,1.7,2.4c0.2,0.2,0.4,0.3,0.7,0.4c0.3,0.1,0.5,0.3,0.8,0.4c0.3,0.1,0.6,0.2,0.9,0.3
				l1.1,0.3c0.4,0.1,0.7,0.2,1.2,0.4c0.4,0.2,0.9,0.4,1.3,0.6c0.4,0.2,0.8,0.4,1.2,0.7c0.4,0.3,0.8,0.5,1.2,0.9
				c1.5,1.2,2.7,3.2,2.9,5.2c0.2,1.9-0.2,3.6-0.8,5c-0.6,1.4-1.3,2.5-2.1,3.5c-1.5,2-3,3.3-4.1,4.2c-1.1,0.9-1.8,1.3-1.8,1.3
				s0.4-0.7,1.1-1.9c0.7-1.2,1.7-2.9,2.6-4.9c0.4-1,0.9-2.1,1.1-3.3c0.3-1.1,0.4-2.3,0.1-3.3c-0.2-1-0.8-1.7-1.7-2.4
				c-0.2-0.2-0.5-0.3-0.7-0.5l-0.8-0.4l-0.8-0.3c-0.3-0.1-0.7-0.2-1.1-0.3l-1.1-0.4c-0.4-0.1-0.9-0.3-1.3-0.5l-0.6-0.3l-0.6-0.4
				c-0.4-0.2-0.8-0.5-1.2-0.8c-1.6-1.2-2.7-3.2-2.9-5.1c-0.2-1.9,0.1-3.6,0.7-5c0.5-1.4,1.2-2.6,1.9-3.6c1.4-2.1,2.8-3.5,3.8-4.5
				C236.4,130.1,237,129.7,237,129.7z"/>
		</g>
		<g id="XMLID_6_">
			<path id="XMLID_24_" class="st1" d="M199.1,121.1c0,0-0.4,0.7-1,1.9c-0.6,1.2-1.5,3-2.2,5.1c-0.4,1.1-0.7,2.2-0.9,3.4
				c-0.2,1.2-0.2,2.4,0,3.4c0.3,1,0.8,1.7,1.7,2.4c0.2,0.2,0.4,0.3,0.7,0.4c0.3,0.1,0.5,0.3,0.8,0.4c0.3,0.1,0.6,0.2,0.9,0.3
				l1.1,0.3c0.4,0.1,0.7,0.2,1.2,0.4c0.4,0.2,0.9,0.4,1.3,0.6c0.4,0.2,0.8,0.4,1.2,0.7c0.4,0.3,0.8,0.5,1.2,0.9
				c1.5,1.2,2.7,3.2,2.9,5.2c0.2,1.9-0.2,3.6-0.8,5c-0.6,1.4-1.3,2.5-2.1,3.5c-1.5,2-3,3.3-4.1,4.2c-1.1,0.9-1.8,1.3-1.8,1.3
				s0.4-0.7,1.1-1.9c0.7-1.2,1.7-2.9,2.6-4.9c0.4-1,0.9-2.1,1.1-3.3c0.3-1.1,0.4-2.3,0.1-3.3c-0.2-1-0.8-1.7-1.7-2.4
				c-0.2-0.2-0.5-0.3-0.7-0.5l-0.8-0.4l-0.8-0.3c-0.3-0.1-0.7-0.2-1.1-0.3l-1.1-0.4c-0.4-0.1-0.9-0.3-1.3-0.5l-0.6-0.3l-0.6-0.4
				c-0.4-0.2-0.8-0.5-1.2-0.8c-1.6-1.2-2.7-3.2-2.9-5.1c-0.2-1.9,0.1-3.6,0.7-5c0.5-1.4,1.2-2.6,1.9-3.6c1.4-2.1,2.8-3.5,3.8-4.5
				C198.5,121.5,199.1,121.1,199.1,121.1z"/>
		</g>
		<g id="XMLID_7_">
			<path id="XMLID_58_" class="st1" d="M42.6,227c1.6,7.7,4.5,14.7,9.1,20.9c2.7,3.7,6.6,5,8.7,3.6c2.2-1.5,2-5.9-0.3-9.8
				c-1.8-3.1-4.7-4.9-7.4-7C49.3,232.1,46,229.6,42.6,227z"/>
			<path id="XMLID_57_" class="st1" d="M73.4,219.2c-3.2,4.9-5.5,8.9-6.9,13.3c-1.2,3.6-0.7,7.1,1.6,10.1c2.7,3.4,6.4,2.7,7.8-1.4
				c0.4-1,0.7-2.2,0.5-3.2C75.6,232.1,74.5,226.2,73.4,219.2z"/>
			<path id="XMLID_56_" class="st1" d="M41.4,202.7c0.3,6.2,1.1,12.3,3.2,18.1c1.5,4.3,4.9,6.8,7.3,5.8c2.5-1.1,3.3-5.6,1.2-9.6
				C50.3,211.4,45.5,207.4,41.4,202.7z"/>
			<path id="XMLID_55_" class="st1" d="M86.7,273.4c-34.2-36-39.9-75.9-17.2-120C61,163.1,53,187.5,55.2,211
				C57.5,236,68,256.9,86.7,273.4z"/>
			<path id="XMLID_54_" class="st1" d="M69.8,201.8c-3.8,3.7-6.8,6.9-9,10.8c-1,1.8-1.2,3.9-1,5.9c0.3,2.4,1.2,4.7,4,4.9
				c2.7,0.2,3.9-1.8,4.4-4c0.6-2.4,0.7-4.8,0.9-7.3C69.4,209.1,69.5,205.9,69.8,201.8z"/>
			<path id="XMLID_53_" class="st1" d="M45.6,179.5c-1.1,5.5-1.6,10.8-0.8,16.1c0.4,2.9,1.1,6.3,5,6.5c2.4,0.1,3.9-3.9,3-8
				C51.6,188.7,48,184.4,45.6,179.5z"/>
			<path id="XMLID_52_" class="st1" d="M68.3,140.2c-4.4,4.3-8.7,8.5-10.8,14.2c-1,2.7-2.5,6.6,1.3,7.8c3.5,1.1,5.3-2.4,6.1-5.3
				C66.3,151.4,67.2,145.7,68.3,140.2z"/>
			<path id="XMLID_28_" class="st1" d="M52.3,158c-1.9,6.3-3.5,11.3-3.9,16.6c-0.1,1.5,0,3,0.3,4.5c0.4,1.6,1.2,3.2,3.1,3.3
				c1.9,0.2,2.9-1.3,3.6-2.8c1-2.1,1.5-4.4,0.8-6.7C55,168.3,53.8,163.7,52.3,158z"/>
			<path id="XMLID_15_" class="st1" d="M86.1,133.7c-5.1,2-9.7,4.5-13.3,8.2c-2.2,2.2-3.7,4.8-2.8,8.1c0.3,1.1,1.2,1.5,2.2,1.5
				c3.3,0,5.1-2.3,6.6-4.8C81.3,142.4,83.7,138,86.1,133.7z"/>
			<path id="XMLID_14_" class="st1" d="M82.7,150.1c-4.9,2.3-8.8,4.1-12.1,6.8c-2.4,2-4,4.5-3.4,7.9c0.2,1.4,1,2.2,2.5,2.3
				c3.5,0,5-2.5,6.4-5C78.1,158.3,80.1,154.7,82.7,150.1z"/>
			<path id="XMLID_13_" class="st1" d="M70.4,184.3c-4.6,2.7-8,5.1-10.6,8.4c-0.8,1-1.2,2.4-1.4,3.8c-0.3,2.2-0.3,4.7,2.3,5.5
				c2.6,0.9,4.3-1.1,5-3.2C67.4,194.5,68.7,189.9,70.4,184.3z"/>
			<path id="XMLID_12_" class="st1" d="M75.5,169.2c-4.6,1.4-8,3.1-11.1,5.3c-1,0.7-1.8,1.7-2.4,2.7c-1.3,2.5-2.4,5.5,0.6,7.2
				c2.9,1.7,4.9-0.7,6.2-3C71.1,177.8,73,173.8,75.5,169.2z"/>
		</g>
		<g id="XMLID_11_">
			<path id="XMLID_89_" class="st1" d="M357.4,227.9c-1.6,7.7-4.5,14.7-9.1,20.9c-2.7,3.7-6.6,5-8.7,3.6c-2.2-1.5-2-5.9,0.3-9.8
				c1.8-3.1,4.7-4.9,7.4-7C350.7,233,354,230.5,357.4,227.9z"/>
			<path id="XMLID_88_" class="st1" d="M326.6,220.1c3.2,4.9,5.5,8.9,6.9,13.3c1.2,3.6,0.7,7.1-1.6,10.1c-2.7,3.4-6.4,2.7-7.8-1.4
				c-0.4-1-0.7-2.2-0.5-3.2C324.4,233,325.5,227.1,326.6,220.1z"/>
			<path id="XMLID_87_" class="st1" d="M358.6,203.6c-0.3,6.2-1.1,12.3-3.2,18.1c-1.5,4.3-4.9,6.8-7.3,5.8c-2.5-1.1-3.3-5.6-1.2-9.6
				C349.7,212.3,354.5,208.3,358.6,203.6z"/>
			<path id="XMLID_86_" class="st1" d="M313.3,274.3c34.2-36,39.9-75.9,17.2-120c8.5,9.7,16.5,34.1,14.4,57.6
				C342.5,236.9,332,257.8,313.3,274.3z"/>
			<path id="XMLID_85_" class="st1" d="M330.2,202.7c3.8,3.7,6.8,6.9,9,10.8c1,1.8,1.2,3.9,1,5.9c-0.3,2.4-1.2,4.7-4,4.9
				c-2.7,0.2-3.9-1.8-4.4-4c-0.6-2.4-0.7-4.8-0.9-7.3C330.6,209.9,330.5,206.8,330.2,202.7z"/>
			<path id="XMLID_84_" class="st1" d="M354.4,180.4c1.1,5.5,1.6,10.8,0.8,16.1c-0.4,2.9-1.1,6.3-5,6.5c-2.4,0.1-3.9-3.9-3-8
				C348.4,189.5,352,185.2,354.4,180.4z"/>
			<path id="XMLID_83_" class="st1" d="M331.7,141c4.4,4.3,8.7,8.5,10.8,14.2c1,2.7,2.5,6.6-1.3,7.8c-3.5,1.1-5.3-2.4-6.1-5.3
				C333.7,152.2,332.8,146.6,331.7,141z"/>
			<path id="XMLID_82_" class="st1" d="M347.7,158.9c1.9,6.3,3.5,11.3,3.9,16.6c0.1,1.5,0,3-0.3,4.5c-0.4,1.6-1.2,3.2-3.1,3.3
				c-1.9,0.2-2.9-1.3-3.6-2.8c-1-2.1-1.5-4.4-0.8-6.7C345,169.2,346.2,164.6,347.7,158.9z"/>
			<path id="XMLID_81_" class="st1" d="M313.9,134.6c5.1,2,9.7,4.5,13.3,8.2c2.2,2.2,3.7,4.8,2.8,8.1c-0.3,1.1-1.2,1.5-2.2,1.5
				c-3.3,0-5.1-2.3-6.6-4.8C318.7,143.3,316.3,138.9,313.9,134.6z"/>
			<path id="XMLID_80_" class="st1" d="M317.3,150.9c4.9,2.3,8.8,4.1,12.1,6.8c2.4,2,4,4.5,3.4,7.9c-0.2,1.4-1,2.2-2.5,2.3
				c-3.5,0-5-2.5-6.4-5C321.9,159.2,319.9,155.5,317.3,150.9z"/>
			<path id="XMLID_79_" class="st1" d="M329.6,185.2c4.6,2.7,8,5.1,10.6,8.4c0.8,1,1.2,2.4,1.4,3.8c0.3,2.2,0.3,4.7-2.3,5.5
				c-2.6,0.9-4.3-1.1-5-3.2C332.6,195.4,331.3,190.8,329.6,185.2z"/>
			<path id="XMLID_78_" class="st1" d="M324.5,170c4.6,1.4,8,3.1,11.1,5.3c1,0.7,1.8,1.7,2.4,2.7c1.3,2.5,2.4,5.5-0.6,7.2
				c-2.9,1.7-4.9-0.7-6.2-3C328.9,178.6,327,174.7,324.5,170z"/>
		</g>
	</g>
</g>
</svg>
